<svg width="18" height="17" viewBox="0 0 18 17" fill="none" xmlns="http://www.w3.org/2000/svg">
<path fill-rule="evenodd" clip-rule="evenodd" d="M8.22742 0.166748C7.85045 0.166748 7.51576 0.406923 7.39655 0.762999L5.08524 7.66673L5.08178 7.66673H5.07723H5.07268H5.06812H5.06355H5.05897H5.05438H5.04978H5.04517H5.04055H5.03593H5.03129H5.02665H5.02199H5.01733H5.01266H5.00798H5.0033H4.9986H4.9939H4.98918H4.98446H4.97973H4.97499H4.97024H4.96548H4.96072H4.95595H4.95117H4.94638H4.94158H4.93677H4.93196H4.92713H4.9223H4.91746H4.91262H4.90776H4.9029H4.89803H4.89315H4.88826H4.88337H4.87847H4.87356H4.86864H4.86371H4.85878H4.85384H4.84889H4.84394H4.83897H4.834H4.82902H4.82404H4.81904H4.81404H4.80904H4.80402H4.799H4.79397H4.78893H4.78389H4.77884H4.77378H4.76872H4.76364H4.75857H4.75348H4.74839H4.74329H4.73818H4.73307H4.72795H4.72282H4.71769H4.71255H4.7074H4.70225H4.69709H4.69192H4.68675H4.68157H4.67639H4.6712H4.666H4.6608H4.65559H4.65037H4.64515H4.63992H4.63468H4.62944H4.62419H4.61894H4.61368H4.60842H4.60315H4.59787H4.59259H4.5873H4.58201H4.57671H4.5714H4.56609H4.56077H4.55545H4.55012H4.54479H4.53945H4.53411H4.52876H4.52341H4.51805H4.51268H4.50731H4.50193H4.49655H4.49117H4.48578H4.48038H4.47498H4.46957H4.46416H4.45874H4.45332H4.4479H4.44247H4.43703H4.43159H4.42615H4.4207H4.41524H4.40979H4.40432H4.39885H4.39338H4.38791H4.38242H4.37694H4.37145H4.36595H4.36046H4.35495H4.34945H4.34394H4.33842H4.3329H4.32738H4.32185H4.31632H4.31078H4.30524H4.2997H4.29415H4.2886H4.28305H4.27749H4.27193H4.26636H4.26079H4.25522H4.24964H4.24406H4.23848H4.23289H4.2273H4.22171H4.21611H4.21051H4.2049H4.1993H4.19369H4.18807H4.18246H4.17684H4.17121H4.16559H4.15996H4.15433H4.14869H4.14306H4.13742H4.13177H4.12613H4.12048H4.11483H4.10917H4.10351H4.09785H4.09219H4.08653H4.08086H4.07519H4.06952H4.06385H4.05817H4.05249H4.04681H4.04112H4.03544H4.02975H4.02406H4.01837H4.01267H4.00698H4.00128H3.99558H3.98988H3.98417H3.97847H3.97276H3.96705H3.96134H3.95563H3.94991H3.94419H3.93848H3.93276H3.92704H3.92131H3.91559H3.90986H3.90414H3.89841H3.89268H3.88695H3.88122H3.87548H3.86975H3.86401H3.85828H3.85254H3.8468H3.84106H3.83532H3.82958H3.82383H3.81809H3.81235H3.8066H3.80085H3.79511H3.78936H3.78361H3.77786H3.77211H3.76636H3.76061H3.75486H3.74911H3.74336H3.73761H3.73186H3.7261H3.72035H3.7146H3.70885H3.70309H3.69734H3.69159H3.68583H3.68008H3.67432H3.66857H3.66282H3.65706H3.65131H3.64556H3.63981H3.63405H3.6283H3.62255H3.6168H3.61105H3.6053H3.59955H3.5938H3.58805H3.5823H3.57655H3.57081H3.56506H3.55931H3.55357H3.54783H3.54208H3.53634H3.5306H3.52486H3.51912H3.51338H3.50764H3.50191H3.49617H3.49044H3.48471H3.47897H3.47324H3.46752H3.46179H3.45606H3.45034H3.44461H3.43889H3.43317H3.42745H3.42174H3.41602H3.41031H3.40459H3.39888H3.39318H3.38747H3.38176H3.37606H3.37036H3.36466H3.35896H3.35327H3.34757H3.34188H3.33619H3.33051H3.32482H3.31914H3.31346H3.30778H3.30211H3.29643H3.29076H3.2851H3.27943H3.27377H3.26811H3.26245H3.25679H3.25114H3.24549H3.23984H3.2342H3.22856H3.22292H3.21728H3.21165H3.20602H3.20039H3.19477H3.18915H3.18353H3.17791H3.1723H3.16669H3.16109H3.15549H3.14989H3.14429H3.1387H3.13311H3.12753H3.12194H3.11637H3.11079H3.10522H3.09965H3.09409H3.08853H3.08297H3.07742H3.07187H3.06633H3.06079H3.05525H3.04971H3.04419H3.03866H3.03314H3.02762H3.02211H3.0166H3.0111H3.0056H3.0001H2.99461H2.98912H2.98364H2.97816H2.97268H2.96721H2.96175H2.95629H2.95083H2.94538H2.93993H2.93449H2.92905H2.92362H2.91819H2.91277H2.90735H2.90194H2.89653H2.89113H2.88573H2.88034H2.87495H2.86956H2.86419H2.85881H2.85345H2.84808H2.84273H2.83737H2.83203H2.82669H2.82135H2.81602H2.8107H2.80538H2.80007H2.79476H2.78946H2.78416H2.77887H2.77358H2.7683H2.76303H2.75776H2.7525H2.74725H2.742H2.73675H2.73152H2.72628H2.72106H2.71584H2.71063H2.70542H2.70022H2.69503H2.68984H2.68466H2.67948H2.67431H2.66915H2.66399H2.65884H2.6537H2.64857H2.64344H2.63831H2.6332H2.62809H2.62299H2.61789H2.6128H2.60772H2.60264H2.59758H2.59252H2.58746H2.58242H2.57738H2.57234H2.56732H2.5623H2.55729H2.55228H2.54729H2.5423H2.53732H2.53234H2.52738H2.52242H2.51747H2.51252H2.50759H2.50266H2.49774H2.49282H2.48792H2.48302H2.47813H2.47325H2.46837H2.46351H2.45865H2.4538H2.44895H2.44412H2.43929H2.43448H2.42967H2.42486H2.42007H2.41529H2.41051H2.40574H2.40098H2.39623H2.39149H2.38675H2.38203H2.37731H2.3726H2.3679H2.36321H2.35852H2.35385H2.34919H2.34453H2.33988C1.41447 7.66673 0.666626 8.41383 0.666626 9.3334V15.1667C0.666626 16.0872 1.41608 16.8334 2.34058 16.8334H13.8301C14.5919 16.8334 15.2576 16.3213 15.4499 15.5874L17.2507 8.71447C17.6657 7.13052 16.4652 5.58341 14.821 5.58341H11.344L11.6164 4.40828C12.1193 2.23838 10.4641 0.166748 8.22742 0.166748ZM6.67329 8.19378L8.77471 1.91699C9.641 2.19032 10.203 3.09417 9.98528 4.03351L9.49452 6.15086C9.36419 6.7132 9.79315 7.25008 10.3728 7.25008H14.821C15.3691 7.25008 15.7692 7.76578 15.6309 8.29377L13.8301 15.1667H6.52547V8.51646C6.58529 8.41585 6.63508 8.3079 6.67329 8.19378ZM4.85152 9.3334H4.84889H4.84394H4.83897H4.834H4.82902H4.82404H4.81904H4.81404H4.80904H4.80402H4.799H4.79397H4.78893H4.78389H4.77884H4.77378H4.76872H4.76364H4.75857H4.75348H4.74839H4.74329H4.73818H4.73307H4.72795H4.72282H4.71769H4.71255H4.7074H4.70225H4.69709H4.69192H4.68675H4.68157H4.67639H4.6712H4.666H4.6608H4.65559H4.65037H4.64515H4.63992H4.63468H4.62944H4.62419H4.61894H4.61368H4.60842H4.60315H4.59787H4.59259H4.5873H4.58201H4.57671H4.5714H4.56609H4.56077H4.55545H4.55012H4.54479H4.53945H4.53411H4.52876H4.52341H4.51805H4.51268H4.50731H4.50193H4.49655H4.49117H4.48578H4.48038H4.47498H4.46957H4.46416H4.45874H4.45332H4.4479H4.44247H4.43703H4.43159H4.42615H4.4207H4.41524H4.40979H4.40432H4.39885H4.39338H4.38791H4.38242H4.37694H4.37145H4.36595H4.36046H4.35495H4.34945H4.34394H4.33842H4.3329H4.32738H4.32185H4.31632H4.31078H4.30524H4.2997H4.29415H4.2886H4.28305H4.27749H4.27193H4.26636H4.26079H4.25522H4.24964H4.24406H4.23848H4.23289H4.2273H4.22171H4.21611H4.21051H4.2049H4.1993H4.19369H4.18807H4.18246H4.17684H4.17121H4.16559H4.15996H4.15433H4.14869H4.14306H4.13742H4.13177H4.12613H4.12048H4.11483H4.10917H4.10351H4.09785H4.09219H4.08653H4.08086H4.07519H4.06952H4.06385H4.05817H4.05249H4.04681H4.04112H4.03544H4.02975H4.02406H4.01837H4.01267H4.00698H4.00128H3.99558H3.98988H3.98417H3.97847H3.97276H3.96705H3.96134H3.95563H3.94991H3.94419H3.93848H3.93276H3.92704H3.92131H3.91559H3.90986H3.90414H3.89841H3.89268H3.88695H3.88122H3.87548H3.86975H3.86401H3.85828H3.85254H3.8468H3.84106H3.83532H3.82958H3.82383H3.81809H3.81235H3.8066H3.80085H3.79511H3.78936H3.78361H3.77786H3.77211H3.76636H3.76061H3.75486H3.74911H3.74336H3.73761H3.73186H3.7261H3.72035H3.7146H3.70885H3.70309H3.69734H3.69159H3.68583H3.68008H3.67432H3.66857H3.66282H3.65706H3.65131H3.64556H3.63981H3.63405H3.6283H3.62255H3.6168H3.61105H3.6053H3.59955H3.5938H3.58805H3.5823H3.57655H3.57081H3.56506H3.55931H3.55357H3.54783H3.54208H3.53634H3.5306H3.52486H3.51912H3.51338H3.50764H3.50191H3.49617H3.49044H3.48471H3.47897H3.47324H3.46752H3.46179H3.45606H3.45034H3.44461H3.43889H3.43317H3.42745H3.42174H3.41602H3.41031H3.40459H3.39888H3.39318H3.38747H3.38176H3.37606H3.37036H3.36466H3.35896H3.35327H3.34757H3.34188H3.33619H3.33051H3.32482H3.31914H3.31346H3.30778H3.30211H3.29643H3.29076H3.2851H3.27943H3.27377H3.26811H3.26245H3.25679H3.25114H3.24549H3.23984H3.2342H3.22856H3.22292H3.21728H3.21165H3.20602H3.20039H3.19477H3.18915H3.18353H3.17791H3.1723H3.16669H3.16109H3.15549H3.14989H3.14429H3.1387H3.13311H3.12753H3.12194H3.11637H3.11079H3.10522H3.09965H3.09409H3.08853H3.08297H3.07742H3.07187H3.06633H3.06079H3.05525H3.04971H3.04419H3.03866H3.03314H3.02762H3.02211H3.0166H3.0111H3.0056H3.0001H2.99461H2.98912H2.98364H2.97816H2.97268H2.96721H2.96175H2.95629H2.95083H2.94538H2.93993H2.93449H2.92905H2.92362H2.91819H2.91277H2.90735H2.90194H2.89653H2.89113H2.88573H2.88034H2.87495H2.86956H2.86419H2.85881H2.85345H2.84808H2.84273H2.83737H2.83203H2.82669H2.82135H2.81602H2.8107H2.80538H2.80007H2.79476H2.78946H2.78416H2.77887H2.77358H2.7683H2.76303H2.75776H2.7525H2.74725H2.742H2.73675H2.73152H2.72628H2.72106H2.71584H2.71063H2.70542H2.70022H2.69503H2.68984H2.68466H2.67948H2.67431H2.66915H2.66399H2.65884H2.6537H2.64857H2.64344H2.63831H2.6332H2.62809H2.62299H2.61789H2.6128H2.60772H2.60264H2.59758H2.59252H2.58746H2.58242H2.57738H2.57234H2.56732H2.5623H2.55729H2.55228H2.54729H2.5423H2.53732H2.53234H2.52738H2.52242H2.51747H2.51252H2.50759H2.50266H2.49774H2.49282H2.48792H2.48302H2.47813H2.47325H2.46837H2.46351H2.45865H2.4538H2.44895H2.44412H2.43929H2.43448H2.42967H2.42486H2.42007H2.41529H2.41051H2.40574H2.40098H2.39623H2.39149H2.38675H2.38203H2.37731H2.3726H2.3679H2.36321H2.35852H2.35385H2.34919H2.34453H2.34058V15.1667H4.85152V9.3334Z" fill="#767678"/>
</svg>
